<svg xmlns="http://www.w3.org/2000/svg" viewBox="0 0 24 24" width="24" height="24" fill="none" stroke="currentColor" stroke-width="1.75" stroke-linecap="round" stroke-linejoin="round" role="img" aria-label="settings"><circle cx="12" cy="12" r="3"></circle><path d="M19 12a7 7 0 0 0-.1-1.2l2-1.5-2-3.4-2.3.9a7 7 0 0 0-2-1.2l-.4-2.5h-4l-.4 2.5a7 7 0 0 0-2 1.2L5.5 5.9l-2 3.4 2 1.5A7 7 0 0 0 5.4 12a7 7 0 0 0 .1 1.2l-2 1.5 2 3.4 2.3-.9a7 7 0 0 0 2 1.2l.4 2.5h4l.4-2.5a7 7 0 0 0 2-1.2l2.3.9 2-3.4-2-1.5c0-.4.1-.8.1-1.2z"></path></svg>