<svg xmlns="http://www.w3.org/2000/svg" width="1200" height="630" viewBox="0 0 1200 630" role="img" aria-labelledby="title desc">
  <title id="title">BP미디어 기본 공유 이미지</title>
  <desc id="desc">스카우트 뉴스 아카이브를 알리는 BP미디어 대표 Open Graph 이미지</desc>
  <defs>
    <linearGradient id="bg" x1="0%" y1="0%" x2="100%" y2="100%">
      <stop offset="0%" stop-color="#f7f2e8"/>
      <stop offset="100%" stop-color="#efe5d3"/>
    </linearGradient>
  </defs>
  <rect width="1200" height="630" fill="url(#bg)"/>
  <circle cx="1058" cy="112" r="120" fill="#47016a" opacity="0.12"/>
  <circle cx="121" cy="522" r="136" fill="#0092ac" opacity="0.12"/>
  <rect x="54" y="52" width="1092" height="526" rx="34" fill="#fffaf2" stroke="#d8c9b4" stroke-width="2"/>
  <rect x="86" y="88" width="164" height="164" rx="28" fill="#47016a"/>
  <circle cx="168" cy="170" r="44" fill="#f7f2e8"/>
  <path d="M142 173c17-36 53-51 82-35-4 31-27 58-63 69-18-7-25-18-19-34z" fill="#f6525b"/>
  <path d="M131 196c34 11 78 6 111-17-7 29-38 56-86 67-31-6-43-20-25-50z" fill="#0092ac"/>
  <text x="286" y="156" fill="#47016a" font-family="Helvetica, Arial, sans-serif" font-size="36" font-weight="700" letter-spacing="3">BPMEDIA.NET</text>
  <text x="286" y="260" fill="#24140d" font-family="Helvetica, Arial, sans-serif" font-size="88" font-weight="700">BP미디어</text>
  <text x="286" y="338" fill="#3f3128" font-family="Helvetica, Arial, sans-serif" font-size="42" font-weight="600">스카우트 뉴스 아카이브</text>
  <text x="286" y="395" fill="#5c4d43" font-family="Helvetica, Arial, sans-serif" font-size="30">한국과 세계 스카우트 소식을 정확한 구조화 데이터와 함께 전합니다.</text>
  <g transform="translate(286 452)">
    <rect width="126" height="46" rx="23" fill="#47016a"/>
    <text x="63" y="30" text-anchor="middle" fill="#ffffff" font-family="Helvetica, Arial, sans-serif" font-size="24" font-weight="700">Korea</text>
    <rect x="142" width="92" height="46" rx="23" fill="#f6525b"/>
    <text x="188" y="30" text-anchor="middle" fill="#ffffff" font-family="Helvetica, Arial, sans-serif" font-size="24" font-weight="700">APR</text>
    <rect x="250" width="111" height="46" rx="23" fill="#0092ac"/>
    <text x="305.5" y="30" text-anchor="middle" fill="#ffffff" font-family="Helvetica, Arial, sans-serif" font-size="24" font-weight="700">WOSM</text>
    <rect x="377" width="131" height="46" rx="23" fill="#8e7652"/>
    <text x="442.5" y="30" text-anchor="middle" fill="#ffffff" font-family="Helvetica, Arial, sans-serif" font-size="24" font-weight="700">People</text>
  </g>
  <line x1="86" y1="534" x2="1114" y2="534" stroke="#d8c9b4" stroke-width="2"/>
  <text x="86" y="568" fill="#5c4d43" font-family="Helvetica, Arial, sans-serif" font-size="24">Independent Scout news archive for Korea, APR, WOSM, people, glossary, and records.</text>
</svg>
